<svg width="24" height="24" viewBox="0 0 24 24" fill="none" xmlns="http://www.w3.org/2000/svg">
<path d="M20.6719 13.125V13.0781H20.625H16.875C16.5891 13.0781 16.3148 12.9645 16.1127 12.7624C15.9105 12.5602 15.7969 12.2859 15.7969 12C15.7969 11.7141 15.9105 11.4398 16.1127 11.2377C16.3148 11.0355 16.5891 10.9219 16.875 10.9219H21C21.4848 10.9219 21.9498 11.1145 22.2927 11.4573C22.6355 11.8002 22.8281 12.2652 22.8281 12.75V18.75C22.8281 19.2348 22.6355 19.6998 22.2927 20.0427C21.9498 20.3855 21.4848 20.5781 21 20.5781H3C2.51515 20.5781 2.05016 20.3855 1.70732 20.0427C1.36448 19.6998 1.17188 19.2348 1.17188 18.75V12.75C1.17188 12.2652 1.36448 11.8002 1.70732 11.4573C2.05016 11.1145 2.51515 10.9219 3 10.9219H7.125C7.41094 10.9219 7.68516 11.0355 7.88735 11.2377C8.08954 11.4398 8.20312 11.7141 8.20312 12C8.20312 12.2859 8.08954 12.5602 7.88735 12.7624C7.68516 12.9645 7.41094 13.0781 7.125 13.0781H3.375H3.32812V13.125V18.375V18.4219H3.375H20.625H20.6719V18.375V13.125ZM8.2628 7.51278L8.23561 7.53995L8.23711 7.5422C8.03756 7.72809 7.7746 7.83195 7.50094 7.83195C7.21448 7.83195 6.93976 7.71816 6.73721 7.51561C6.53465 7.31305 6.42086 7.03833 6.42086 6.75188C6.42086 6.61004 6.4488 6.46959 6.50308 6.33855C6.55736 6.20751 6.63691 6.08844 6.73721 5.98815L11.2372 1.48815L11.2373 1.48809C11.3374 1.38758 11.4564 1.30783 11.5875 1.25342C11.7185 1.199 11.859 1.17099 12.0009 1.17099C12.1428 1.17099 12.2833 1.199 12.4144 1.25342C12.5454 1.30783 12.6644 1.38758 12.7646 1.48809L12.7647 1.48815L17.2647 5.98815C17.365 6.08844 17.4445 6.20751 17.4988 6.33855C17.5531 6.46959 17.581 6.61004 17.581 6.75188C17.581 6.89371 17.5531 7.03416 17.4988 7.1652C17.4445 7.29625 17.365 7.41531 17.2647 7.51561C17.1644 7.6159 17.0453 7.69546 16.9143 7.74974C16.7832 7.80402 16.6428 7.83195 16.5009 7.83195C16.3591 7.83195 16.2187 7.80402 16.0876 7.74974C15.9566 7.69546 15.8375 7.6159 15.7372 7.51561L13.1582 4.93561L13.0781 4.85556V4.96875V12C13.0781 12.2859 12.9645 12.5602 12.7623 12.7624C12.5602 12.9645 12.2859 13.0781 12 13.0781C11.7141 13.0781 11.4398 12.9645 11.2377 12.7624C11.0355 12.5602 10.9219 12.2859 10.9219 12V4.96875V4.85564L10.8419 4.93559L8.2628 7.51278ZM17.625 17.2031C17.3376 17.2031 17.0567 17.1179 16.8177 16.9582C16.5787 16.7986 16.3925 16.5716 16.2825 16.3061C16.1725 16.0406 16.1437 15.7484 16.1998 15.4665C16.2559 15.1846 16.3943 14.9257 16.5975 14.7225C16.8007 14.5193 17.0596 14.3809 17.3415 14.3248C17.6234 14.2687 17.9156 14.2975 18.1811 14.4075C18.4466 14.5175 18.6736 14.7037 18.8332 14.9427C18.9929 15.1817 19.0781 15.4626 19.0781 15.75C19.0781 16.1354 18.925 16.505 18.6525 16.7775C18.38 17.05 18.0104 17.2031 17.625 17.2031Z" fill="#475569" stroke="#475569" stroke-width="0.09375"/>
</svg>
