<svg width="99" height="40" viewBox="0 0 99 40" fill="none" xmlns="http://www.w3.org/2000/svg">
<rect width="99" height="40" rx="20" fill="#4F46E5"/>
<path d="M20.732 26.168C20.0693 26.168 19.4533 26.0467 18.884 25.804C18.324 25.5613 17.8387 25.2253 17.428 24.796C17.0267 24.3573 16.7327 23.8487 16.546 23.27L18.128 22.584C18.38 23.1813 18.744 23.6527 19.22 23.998C19.696 24.334 20.2327 24.502 20.83 24.502C21.166 24.502 21.4553 24.4507 21.698 24.348C21.95 24.236 22.1413 24.0867 22.272 23.9C22.412 23.7133 22.482 23.4893 22.482 23.228C22.482 22.92 22.3887 22.668 22.202 22.472C22.0247 22.2667 21.754 22.108 21.39 21.996L19.388 21.352C18.576 21.1 17.9647 20.722 17.554 20.218C17.1433 19.714 16.938 19.1213 16.938 18.44C16.938 17.8427 17.0827 17.3153 17.372 16.858C17.6707 16.4007 18.0813 16.046 18.604 15.794C19.136 15.5327 19.7427 15.402 20.424 15.402C21.0493 15.402 21.6233 15.514 22.146 15.738C22.6687 15.9527 23.1167 16.256 23.49 16.648C23.8727 17.0307 24.1573 17.4833 24.344 18.006L22.776 18.706C22.5707 18.1833 22.2627 17.782 21.852 17.502C21.4413 17.2127 20.9653 17.068 20.424 17.068C20.1067 17.068 19.8267 17.124 19.584 17.236C19.3413 17.3387 19.15 17.488 19.01 17.684C18.8793 17.8707 18.814 18.0947 18.814 18.356C18.814 18.6453 18.9073 18.902 19.094 19.126C19.2807 19.3407 19.5653 19.5087 19.948 19.63L21.866 20.232C22.6967 20.5027 23.3173 20.876 23.728 21.352C24.148 21.828 24.358 22.416 24.358 23.116C24.358 23.7133 24.204 24.2407 23.896 24.698C23.588 25.1553 23.1633 25.5147 22.622 25.776C22.0807 26.0373 21.4507 26.168 20.732 26.168ZM25.8345 26V15.402H27.6685V19.882L27.4165 19.616C27.5938 19.1587 27.8831 18.8133 28.2845 18.58C28.6951 18.3373 29.1711 18.216 29.7125 18.216C30.2725 18.216 30.7671 18.3373 31.1965 18.58C31.6351 18.8227 31.9758 19.1633 32.2185 19.602C32.4611 20.0313 32.5825 20.5307 32.5825 21.1V26H30.7485V21.534C30.7485 21.198 30.6831 20.9087 30.5525 20.666C30.4218 20.4233 30.2398 20.2367 30.0065 20.106C29.7825 19.966 29.5165 19.896 29.2085 19.896C28.9098 19.896 28.6438 19.966 28.4105 20.106C28.1771 20.2367 27.9951 20.4233 27.8645 20.666C27.7338 20.9087 27.6685 21.198 27.6685 21.534V26H25.8345ZM36.3593 26.168C35.8273 26.168 35.3653 26.0793 34.9733 25.902C34.5813 25.7247 34.2779 25.4727 34.0633 25.146C33.8486 24.81 33.7413 24.4227 33.7413 23.984C33.7413 23.564 33.8346 23.1907 34.0213 22.864C34.2079 22.528 34.4973 22.248 34.8893 22.024C35.2813 21.8 35.7759 21.6413 36.3733 21.548L38.8653 21.142V22.542L36.7233 22.906C36.3593 22.9713 36.0886 23.088 35.9113 23.256C35.7339 23.424 35.6453 23.6433 35.6453 23.914C35.6453 24.1753 35.7433 24.3853 35.9393 24.544C36.1446 24.6933 36.3966 24.768 36.6953 24.768C37.0779 24.768 37.4139 24.6887 37.7033 24.53C38.0019 24.362 38.2306 24.1333 38.3893 23.844C38.5573 23.5547 38.6413 23.2373 38.6413 22.892V20.932C38.6413 20.6053 38.5106 20.3347 38.2493 20.12C37.9973 19.896 37.6613 19.784 37.2413 19.784C36.8493 19.784 36.4993 19.8913 36.1913 20.106C35.8926 20.3113 35.6733 20.5867 35.5333 20.932L34.0353 20.204C34.1846 19.8027 34.4179 19.4573 34.7353 19.168C35.0619 18.8693 35.4446 18.636 35.8833 18.468C36.3219 18.3 36.7979 18.216 37.3113 18.216C37.9366 18.216 38.4873 18.3327 38.9633 18.566C39.4393 18.79 39.8079 19.1073 40.0693 19.518C40.3399 19.9193 40.4753 20.3907 40.4753 20.932V26H38.7393V24.698L39.1313 24.67C38.9353 24.9967 38.7019 25.272 38.4313 25.496C38.1606 25.7107 37.8526 25.8787 37.5073 26C37.1619 26.112 36.7793 26.168 36.3593 26.168ZM42.0864 26V18.384H43.8084V20.078L43.6684 19.826C43.8457 19.2567 44.121 18.86 44.4944 18.636C44.877 18.412 45.3344 18.3 45.8664 18.3H46.3144V19.924H45.6564C45.1337 19.924 44.7137 20.0873 44.3964 20.414C44.079 20.7313 43.9204 21.1793 43.9204 21.758V26H42.0864ZM50.8507 26.168C50.0667 26.168 49.3807 25.9907 48.7927 25.636C48.2047 25.2813 47.7474 24.8007 47.4207 24.194C47.094 23.5873 46.9307 22.9153 46.9307 22.178C46.9307 21.4127 47.094 20.736 47.4207 20.148C47.7567 19.5507 48.2094 19.0793 48.7787 18.734C49.3574 18.3887 50.0014 18.216 50.7107 18.216C51.308 18.216 51.8307 18.314 52.2787 18.51C52.736 18.706 53.1234 18.9767 53.4407 19.322C53.758 19.6673 54.0007 20.064 54.1687 20.512C54.3367 20.9507 54.4207 21.4267 54.4207 21.94C54.4207 22.0707 54.4114 22.206 54.3927 22.346C54.3834 22.486 54.36 22.6073 54.3227 22.71H48.4427V21.31H53.2867L52.4187 21.968C52.5027 21.5387 52.4794 21.156 52.3487 20.82C52.2274 20.484 52.022 20.218 51.7327 20.022C51.4527 19.826 51.112 19.728 50.7107 19.728C50.328 19.728 49.9874 19.826 49.6887 20.022C49.39 20.2087 49.1614 20.4887 49.0027 20.862C48.8534 21.226 48.7974 21.6693 48.8347 22.192C48.7974 22.6587 48.858 23.074 49.0167 23.438C49.1847 23.7927 49.4274 24.068 49.7447 24.264C50.0714 24.46 50.4447 24.558 50.8647 24.558C51.2847 24.558 51.6394 24.4693 51.9287 24.292C52.2274 24.1147 52.4607 23.8767 52.6287 23.578L54.1127 24.306C53.9634 24.67 53.73 24.992 53.4127 25.272C53.0954 25.552 52.7174 25.7713 52.2787 25.93C51.8494 26.0887 51.3734 26.168 50.8507 26.168Z" fill="white"/>
<path d="M76.75 22.1875C75.9128 22.1861 75.1042 22.4919 74.4774 23.0469L71.2891 21C71.487 20.348 71.487 19.652 71.2891 19L74.4774 16.9531C75.098 17.4985 75.8948 17.8011 76.721 17.8052C77.5471 17.8093 78.3469 17.5145 78.9728 16.9752C79.5988 16.436 80.0086 15.6886 80.1268 14.8709C80.245 14.0532 80.0636 13.2204 79.616 12.5259C79.1684 11.8315 78.4849 11.3223 77.6914 11.0922C76.8979 10.8622 76.0479 10.9267 75.2983 11.2741C74.5487 11.6214 73.9499 12.228 73.6124 12.9821C73.2749 13.7362 73.2214 14.5869 73.4617 15.3773L70.2727 17.4219C69.7768 16.9836 69.1648 16.6978 68.5105 16.5988C67.8561 16.4998 67.187 16.5918 66.5836 16.8638C65.9803 17.1358 65.4683 17.5762 65.1091 18.1321C64.7499 18.688 64.5588 19.3358 64.5588 19.9976C64.5588 20.6595 64.7499 21.3072 65.1091 21.8631C65.4683 22.419 65.9803 22.8594 66.5836 23.1314C67.187 23.4034 67.8561 23.4955 68.5105 23.3965C69.1648 23.2975 69.7768 23.0117 70.2727 22.5734L73.461 24.625C73.2506 25.3168 73.2638 26.0574 73.4986 26.7413C73.7335 27.4253 74.178 28.0177 74.769 28.4344C75.36 28.8511 76.0674 29.0708 76.7905 29.0622C77.5136 29.0537 78.2155 28.8173 78.7965 28.3867C79.3775 27.9562 79.8079 27.3534 80.0265 26.6641C80.2451 25.9748 80.2407 25.2341 80.014 24.5474C79.7873 23.8607 79.3499 23.263 78.7639 22.8393C78.1779 22.4156 77.4732 22.1875 76.75 22.1875ZM76.75 12.8125C77.0591 12.8125 77.3612 12.9041 77.6181 13.0758C77.8751 13.2475 78.0753 13.4915 78.1936 13.777C78.3119 14.0625 78.3428 14.3767 78.2825 14.6798C78.2222 14.9829 78.0734 15.2613 77.8549 15.4798C77.6364 15.6983 77.358 15.8472 77.0549 15.9075C76.7518 15.9677 76.4376 15.9368 76.1521 15.8185C75.8666 15.7003 75.6225 15.5 75.4509 15.2431C75.2792 14.9861 75.1875 14.684 75.1875 14.375C75.1875 13.9606 75.3521 13.5631 75.6452 13.2701C75.9382 12.9771 76.3356 12.8125 76.75 12.8125ZM68 21.5625C67.691 21.5625 67.3889 21.4708 67.132 21.2991C66.875 21.1275 66.6747 20.8834 66.5565 20.5979C66.4382 20.3124 66.4073 19.9982 66.4676 19.6951C66.5278 19.3921 66.6767 19.1136 66.8952 18.8951C67.1137 18.6766 67.3921 18.5278 67.6952 18.4675C67.9983 18.4072 68.3125 18.4382 68.598 18.5564C68.8835 18.6747 69.1275 18.8749 69.2992 19.1319C69.4709 19.3888 69.5625 19.6909 69.5625 20C69.5625 20.4144 69.3979 20.8118 69.1049 21.1048C68.8119 21.3979 68.4144 21.5625 68 21.5625ZM76.75 27.1875C76.441 27.1875 76.1389 27.0958 75.8819 26.9241C75.625 26.7525 75.4247 26.5084 75.3065 26.2229C75.1882 25.9374 75.1573 25.6232 75.2176 25.3201C75.2778 25.0171 75.4267 24.7386 75.6452 24.5201C75.8637 24.3016 76.1421 24.1528 76.4452 24.0925C76.7483 24.0322 77.0625 24.0632 77.348 24.1814C77.6335 24.2997 77.8775 24.4999 78.0492 24.7569C78.2209 25.0138 78.3125 25.3159 78.3125 25.625C78.3125 26.0394 78.1479 26.4368 77.8549 26.7298C77.5619 27.0229 77.1644 27.1875 76.75 27.1875Z" fill="white"/>
</svg>
